<svg width="20" height="21" viewBox="0 0 20 21" fill="none" xmlns="http://www.w3.org/2000/svg">
<path fill-rule="evenodd" clip-rule="evenodd" d="M11.8787 1.45123C10.9653 1.19623 10.1103 1.47123 9.50283 2.0304C8.90366 2.5804 8.54199 3.40206 8.54199 4.2804V9.85956C8.54199 10.3668 8.74349 10.8532 9.10215 11.2119C9.46081 11.5706 9.94727 11.7721 10.4545 11.7721H16.0328C16.912 11.7721 17.7345 11.4104 18.2837 10.8112C18.842 10.2037 19.1178 9.34873 18.8628 8.4354C18.3956 6.77005 17.5078 5.2529 16.2848 4.02977C15.0618 2.80665 13.5448 1.91868 11.8795 1.45123M9.79199 4.2804C9.79199 3.73706 10.017 3.25373 10.3487 2.94956C10.6703 2.65373 11.087 2.52623 11.5428 2.65373C14.5012 3.47956 16.8337 5.81206 17.6595 8.7704C17.787 9.22706 17.6595 9.64373 17.3637 9.9654C17.0595 10.2962 16.5762 10.5212 16.0328 10.5212H10.4545C10.2788 10.5212 10.1103 10.4514 9.98603 10.3272C9.86179 10.2029 9.79199 10.0344 9.79199 9.85873V4.2804Z" fill="#AEAAAA"/>
<path d="M7.22699 4.24371C7.38524 4.19398 7.51725 4.08343 7.59398 3.93637C7.67072 3.78931 7.68589 3.61779 7.63616 3.45954C7.58643 3.3013 7.47588 3.16929 7.32882 3.09255C7.18176 3.01582 7.01024 3.00065 6.85199 3.05037C3.48616 4.10871 1.04199 7.25371 1.04199 10.972C1.04199 15.5562 4.75866 19.2729 9.34199 19.2729C11.1088 19.2735 12.8298 18.7103 14.2544 17.6651C15.679 16.62 16.7329 15.1476 17.2628 13.462C17.2907 13.3829 17.3024 13.299 17.2972 13.2153C17.2919 13.1316 17.2699 13.0499 17.2324 12.9748C17.1949 12.8998 17.1427 12.8331 17.0789 12.7787C17.0151 12.7243 16.941 12.6833 16.861 12.6581C16.781 12.6329 16.6967 12.6241 16.6133 12.6322C16.5298 12.6402 16.4488 12.665 16.3751 12.705C16.3014 12.7451 16.2365 12.7995 16.1843 12.8651C16.1321 12.9308 16.0936 13.0062 16.0712 13.087C15.6205 14.5185 14.7251 15.7689 13.5151 16.6565C12.3051 17.5442 10.8435 18.0228 9.34283 18.0229C8.41694 18.023 7.50009 17.8407 6.64465 17.4865C5.78921 17.1322 5.01193 16.6129 4.35718 15.9583C3.70244 15.3036 3.18307 14.5264 2.82872 13.671C2.47437 12.8156 2.29199 11.8988 2.29199 10.9729C2.29199 9.47229 2.77051 8.0108 3.658 6.8008C4.5455 5.5908 5.79572 4.6945 7.22699 4.24371Z" fill="#AEAAAA"/>
</svg>
