<svg width="20" height="21" viewBox="0 0 20 21" fill="none" xmlns="http://www.w3.org/2000/svg">
<path d="M11.25 3.73035V16.897C11.25 18.147 11.7833 18.647 13.1083 18.647H16.475C17.8 18.647 18.3333 18.147 18.3333 16.897V3.73035C18.3333 2.48035 17.8 1.98035 16.475 1.98035H13.1083C11.7833 1.98035 11.25 2.48035 11.25 3.73035Z" fill="#5353CB"/>
<path d="M1.66699 3.73035V16.897C1.66699 18.147 2.20033 18.647 3.52533 18.647H6.89199C8.21699 18.647 8.75033 18.147 8.75033 16.897V3.73035C8.75033 2.48035 8.21699 1.98035 6.89199 1.98035H3.52533C2.20033 1.98035 1.66699 2.48035 1.66699 3.73035Z" fill="#5353CB"/>
</svg>
