<svg width="16" height="17" viewBox="0 0 16 17" fill="none" xmlns="http://www.w3.org/2000/svg">
<path d="M10.6663 11.4804H5.33301C5.05967 11.4804 4.83301 11.2538 4.83301 10.9804V5.64709C4.83301 5.37376 5.05967 5.14709 5.33301 5.14709H10.6663C10.9397 5.14709 11.1663 5.37376 11.1663 5.64709V10.9804C11.1663 11.2538 10.9397 11.4804 10.6663 11.4804ZM5.83301 10.4804H10.1663V6.14709H5.83301V10.4804Z" fill="#AEAAAA"/>
<path d="M3.33301 15.4803C1.95301 15.4803 0.833008 14.3603 0.833008 12.9803C0.833008 11.6003 1.95301 10.4803 3.33301 10.4803H5.33301C5.60634 10.4803 5.83301 10.707 5.83301 10.9803V12.9803C5.83301 14.3603 4.71301 15.4803 3.33301 15.4803ZM3.33301 11.4803C2.50634 11.4803 1.83301 12.1537 1.83301 12.9803C1.83301 13.807 2.50634 14.4803 3.33301 14.4803C4.15967 14.4803 4.83301 13.807 4.83301 12.9803V11.4803H3.33301Z" fill="#AEAAAA"/>
<path d="M5.33301 6.14709H3.33301C1.95301 6.14709 0.833008 5.02709 0.833008 3.64709C0.833008 2.26709 1.95301 1.14709 3.33301 1.14709C4.71301 1.14709 5.83301 2.26709 5.83301 3.64709V5.64709C5.83301 5.92043 5.60634 6.14709 5.33301 6.14709ZM3.33301 2.14709C2.50634 2.14709 1.83301 2.82043 1.83301 3.64709C1.83301 4.47376 2.50634 5.14709 3.33301 5.14709H4.83301V3.64709C4.83301 2.82043 4.15967 2.14709 3.33301 2.14709Z" fill="#AEAAAA"/>
<path d="M12.667 6.14709H10.667C10.3937 6.14709 10.167 5.92043 10.167 5.64709V3.64709C10.167 2.26709 11.287 1.14709 12.667 1.14709C14.047 1.14709 15.167 2.26709 15.167 3.64709C15.167 5.02709 14.047 6.14709 12.667 6.14709ZM11.167 5.14709H12.667C13.4937 5.14709 14.167 4.47376 14.167 3.64709C14.167 2.82043 13.4937 2.14709 12.667 2.14709C11.8403 2.14709 11.167 2.82043 11.167 3.64709V5.14709Z" fill="#AEAAAA"/>
<path d="M12.667 15.4803C11.287 15.4803 10.167 14.3603 10.167 12.9803V10.9803C10.167 10.707 10.3937 10.4803 10.667 10.4803H12.667C14.047 10.4803 15.167 11.6003 15.167 12.9803C15.167 14.3603 14.047 15.4803 12.667 15.4803ZM11.167 11.4803V12.9803C11.167 13.807 11.8403 14.4803 12.667 14.4803C13.4937 14.4803 14.167 13.807 14.167 12.9803C14.167 12.1537 13.4937 11.4803 12.667 11.4803H11.167Z" fill="#AEAAAA"/>
</svg>
