<svg width="20" height="21" viewBox="0 0 20 21" fill="none" xmlns="http://www.w3.org/2000/svg">
<path d="M11.6974 17.7612C11.5452 17.7611 11.3959 17.7193 11.2658 17.6404L8.48742 15.9737C8.17482 15.7852 7.91606 15.5193 7.73609 15.2017C7.55612 14.8841 7.461 14.5255 7.45992 14.1604V10.3896C7.46045 10.1234 7.3777 9.8638 7.22325 9.64707L3.34409 4.1954C3.2535 4.06955 3.19945 3.92112 3.18789 3.76649C3.17633 3.61186 3.20771 3.45704 3.27857 3.31912C3.34943 3.18119 3.45701 3.06552 3.58945 2.98487C3.72188 2.90422 3.87402 2.86172 4.02909 2.86207H15.9708C16.1259 2.86142 16.2783 2.90373 16.4109 2.98432C16.5435 3.06491 16.6512 3.18062 16.7222 3.31866C16.7931 3.45669 16.8244 3.61166 16.8127 3.7664C16.801 3.92114 16.7466 4.06962 16.6558 4.1954L12.7766 9.64707C12.6218 9.8637 12.5388 10.1233 12.5391 10.3896V16.9179C12.5389 17.1412 12.4502 17.3553 12.2924 17.5134C12.1347 17.6715 11.9207 17.7606 11.6974 17.7612ZM4.02909 3.69957L7.90159 9.16373C8.15823 9.52077 8.29533 9.94986 8.29325 10.3896V14.1596C8.29356 14.3808 8.35103 14.5981 8.4601 14.7906C8.56917 14.983 8.72613 15.144 8.91575 15.2579L11.6941 16.9246L11.7058 10.3887C11.7039 9.94894 11.8413 9.51984 12.0983 9.1629L15.9766 3.71123L4.02909 3.69957Z" fill="#AEAAAA"/>
</svg>
