<svg width="23" height="23" viewBox="0 0 23 23" fill="none" xmlns="http://www.w3.org/2000/svg">
<g clip-path="url(#clip0_87_353)">
<path d="M9.42791 13.1993L13.1991 9.42805M8.0137 10.8423L6.59949 12.2565C6.09939 12.7566 5.81844 13.4348 5.81844 14.1421C5.81844 14.8493 6.09939 15.5276 6.59949 16.0277C7.09958 16.5278 7.77786 16.8088 8.4851 16.8088C9.19235 16.8088 9.87062 16.5278 10.3707 16.0277L11.7849 14.6135M10.8421 8.01383L12.2563 6.59962C12.7564 6.09952 13.4347 5.81857 14.142 5.81857C14.8492 5.81857 15.5275 6.09952 16.0276 6.59962C16.5277 7.09972 16.8086 7.77799 16.8086 8.48524C16.8086 9.19248 16.5277 9.87076 16.0276 10.3709L14.6134 11.7851" stroke="#AEAAAA" stroke-linecap="round" stroke-linejoin="round"/>
</g>
<defs>
<clipPath id="clip0_87_353">
<rect width="16" height="16" fill="white" transform="translate(0 11.3137) rotate(-45)"/>
</clipPath>
</defs>
</svg>
