<svg width="17" height="17" viewBox="0 0 17 17" fill="none" xmlns="http://www.w3.org/2000/svg">
<path d="M8.62732 14.3137C9.93594 14.3134 11.2086 13.8853 12.2513 13.0946C13.294 12.3039 14.0497 11.194 14.4031 9.934C14.7565 8.67399 14.6882 7.333 14.2087 6.11538C13.7293 4.89776 12.8649 3.87028 11.7473 3.18951C10.6297 2.50875 9.32013 2.21204 8.01824 2.34459C6.71635 2.47714 5.49349 3.03169 4.53601 3.92372C3.57854 4.81576 2.93895 5.99637 2.71472 7.28564C2.49049 8.57491 2.69391 9.90213 3.29399 11.0651L2.62732 14.3137L5.87599 13.6471C6.69999 14.0731 7.63599 14.3137 8.62732 14.3137Z" stroke="#AEAAAA" stroke-linecap="round" stroke-linejoin="round"/>
<path d="M5.62695 8.31372H5.63362V8.32039H5.62695V8.31372ZM8.62695 8.31372H8.63362V8.32039H8.62695V8.31372ZM11.627 8.31372H11.6336V8.32039H11.627V8.31372Z" stroke="#AEAAAA" stroke-width="1.5" stroke-linejoin="round"/>
</svg>
