<svg width="20" height="21" viewBox="0 0 20 21" fill="none" xmlns="http://www.w3.org/2000/svg">
<path d="M14.167 18.022H5.83366C2.79199 18.022 1.04199 16.272 1.04199 13.2303V7.39701C1.04199 4.35535 2.79199 2.60535 5.83366 2.60535H14.167C17.2087 2.60535 18.9587 4.35535 18.9587 7.39701V13.2303C18.9587 16.272 17.2087 18.022 14.167 18.022ZM5.83366 3.85535C3.45033 3.85535 2.29199 5.01368 2.29199 7.39701V13.2303C2.29199 15.6137 3.45033 16.772 5.83366 16.772H14.167C16.5503 16.772 17.7087 15.6137 17.7087 13.2303V7.39701C17.7087 5.01368 16.5503 3.85535 14.167 3.85535H5.83366Z" fill="#AEAAAA"/>
<path d="M9.99998 11.0387C9.29998 11.0387 8.59165 10.822 8.04998 10.3804L5.44164 8.29703C5.17498 8.08036 5.12498 7.68869 5.34165 7.42203C5.55831 7.15536 5.94998 7.10537 6.21665 7.32203L8.82497 9.40537C9.45831 9.9137 10.5333 9.9137 11.1666 9.40537L13.775 7.32203C14.0416 7.10537 14.4416 7.14703 14.65 7.42203C14.8666 7.68869 14.825 8.0887 14.55 8.29703L11.9416 10.3804C11.4083 10.822 10.7 11.0387 9.99998 11.0387Z" fill="#AEAAAA"/>
</svg>
