<svg width="20" height="21" viewBox="0 0 20 21" fill="none" xmlns="http://www.w3.org/2000/svg">
<path d="M5.83333 10.3138C5.83333 10.7558 5.65774 11.1797 5.34518 11.4923C5.03262 11.8048 4.60869 11.9804 4.16667 11.9804C3.72464 11.9804 3.30072 11.8048 2.98816 11.4923C2.67559 11.1797 2.5 10.7558 2.5 10.3138C2.5 9.87173 2.67559 9.44781 2.98816 9.13525C3.30072 8.82269 3.72464 8.64709 4.16667 8.64709C4.60869 8.64709 5.03262 8.82269 5.34518 9.13525C5.65774 9.44781 5.83333 9.87173 5.83333 10.3138ZM11.6667 10.3138C11.6667 10.7558 11.4911 11.1797 11.1785 11.4923C10.866 11.8048 10.442 11.9804 10 11.9804C9.55797 11.9804 9.13405 11.8048 8.82149 11.4923C8.50893 11.1797 8.33333 10.7558 8.33333 10.3138C8.33333 9.87173 8.50893 9.44781 8.82149 9.13525C9.13405 8.82269 9.55797 8.64709 10 8.64709C10.442 8.64709 10.866 8.82269 11.1785 9.13525C11.4911 9.44781 11.6667 9.87173 11.6667 10.3138ZM17.5 10.3138C17.5 10.7558 17.3244 11.1797 17.0118 11.4923C16.6993 11.8048 16.2754 11.9804 15.8333 11.9804C15.3913 11.9804 14.9674 11.8048 14.6548 11.4923C14.3423 11.1797 14.1667 10.7558 14.1667 10.3138C14.1667 9.87173 14.3423 9.44781 14.6548 9.13525C14.9674 8.82269 15.3913 8.64709 15.8333 8.64709C16.2754 8.64709 16.6993 8.82269 17.0118 9.13525C17.3244 9.44781 17.5 9.87173 17.5 10.3138Z" fill="#AEAAAA"/>
</svg>
