<svg width="20" height="21" viewBox="0 0 20 21" fill="none" xmlns="http://www.w3.org/2000/svg">
<path d="M10.0162 17.4221C8.07457 17.4221 6.1329 17.1137 4.29123 16.4971C3.59123 16.2554 3.0579 15.7637 2.82457 15.1221C2.5829 14.4804 2.66623 13.7721 3.04957 13.1387L4.0079 11.5471C4.2079 11.2137 4.39123 10.5471 4.39123 10.1554V7.74707C4.39123 4.64707 6.91623 2.12207 10.0162 2.12207C13.1162 2.12207 15.6412 4.64707 15.6412 7.74707V10.1554C15.6412 10.5387 15.8246 11.2137 16.0246 11.5554L16.9746 13.1387C17.3329 13.7387 17.3996 14.4637 17.1579 15.1221C16.9162 15.7804 16.3912 16.2804 15.7329 16.4971C13.8996 17.1137 11.9579 17.4221 10.0162 17.4221ZM10.0162 3.37207C7.6079 3.37207 5.64123 5.3304 5.64123 7.74707V10.1554C5.64123 10.7637 5.39123 11.6637 5.0829 12.1887L4.12457 13.7804C3.94123 14.0887 3.89123 14.4137 3.99957 14.6887C4.09957 14.9721 4.34957 15.1887 4.69123 15.3054C8.17457 16.4721 11.8662 16.4721 15.3496 15.3054C15.6496 15.2054 15.8829 14.9804 15.9912 14.6804C16.0996 14.3804 16.0746 14.0554 15.9079 13.7804L14.9496 12.1887C14.6329 11.6471 14.3912 10.7554 14.3912 10.1471V7.74707C14.3912 5.3304 12.4329 3.37207 10.0162 3.37207Z" fill="#42474E"/>
<path d="M11.5668 3.597C11.5085 3.597 11.4502 3.58866 11.3918 3.572C11.1502 3.50533 10.9168 3.45533 10.6918 3.422C9.98351 3.33033 9.30018 3.38033 8.65851 3.572C8.42518 3.647 8.17518 3.572 8.01684 3.397C7.85851 3.222 7.80851 2.972 7.90018 2.747C8.24184 1.872 9.07518 1.297 10.0252 1.297C10.9752 1.297 11.8085 1.86366 12.1502 2.747C12.2335 2.972 12.1918 3.222 12.0335 3.397C11.9085 3.53033 11.7335 3.597 11.5668 3.597Z" fill="#42474E"/>
<path d="M10.0166 19.322C9.1916 19.322 8.3916 18.9887 7.80827 18.4054C7.22493 17.822 6.8916 17.022 6.8916 16.197H8.1416C8.1416 16.6887 8.3416 17.172 8.6916 17.522C9.0416 17.872 9.52494 18.072 10.0166 18.072C11.0499 18.072 11.8916 17.2304 11.8916 16.197H13.1416C13.1416 17.922 11.7416 19.322 10.0166 19.322Z" fill="#42474E"/>
</svg>
