<svg width="197" height="44" viewBox="0 0 197 44" fill="none" xmlns="http://www.w3.org/2000/svg">
<g clip-path="url(#clip0_78_6)">
<path d="M20.6713 7.78514C20.9287 5.98894 22.6112 4.71345 24.3362 5.28394C26.8503 6.11539 29.1692 7.48002 31.1268 9.2987C33.892 11.8675 35.8042 15.2192 36.607 18.9041C37.4096 22.5891 37.0649 26.4311 35.6182 29.9146C34.1717 33.3982 31.6928 36.3568 28.5142 38.3935C25.3355 40.4301 21.6091 41.4472 17.8349 41.3086C14.0607 41.1703 10.4192 39.8825 7.39883 37.6185C4.37851 35.3542 2.12386 32.2219 0.937372 28.6417C0.097348 26.107 -0.178813 23.4335 0.111819 20.805C0.311234 19.0014 2.17348 18.0058 3.916 18.5206C5.65853 19.0354 6.60328 20.8768 6.58154 22.6912C6.5658 24.0036 6.76721 25.3171 7.18487 26.5775C7.94965 28.8852 9.40294 30.9042 11.3498 32.3636C13.2966 33.823 15.6439 34.6531 18.0766 34.7423C20.5094 34.8316 22.9114 34.1759 24.9602 32.8632C27.0091 31.5504 28.607 29.6434 29.5393 27.398C30.4718 25.1525 30.6941 22.6761 30.1767 20.3008C29.6592 17.9256 28.4267 15.7652 26.6443 14.1094C25.6709 13.2051 24.559 12.475 23.3576 11.9424C21.6967 11.2062 20.414 9.58133 20.6713 7.78514Z" fill="#5353CB"/>
<path d="M16.7577 0.0690981C18.5364 0.440769 19.7032 2.19908 19.0224 3.88143C17.7457 7.03623 15.6125 9.79928 12.8342 11.842C10.056 13.8848 6.78035 15.0986 3.38422 15.3796C1.57322 15.5293 0.238003 13.8948 0.41051 12.0885C0.583018 10.2822 2.21223 9.00388 3.99987 8.67787C5.77068 8.3549 7.45985 7.63348 8.93224 6.5509C10.4046 5.46831 11.596 4.07185 12.4304 2.47919C13.2729 0.871444 14.979 -0.302573 16.7577 0.0690981Z" fill="#5AD0E0"/>
<path d="M75.1093 22.4201C75.1093 25.3175 74.566 27.7991 73.4788 29.8649C72.4005 31.922 70.9278 33.4976 69.0604 34.5918C67.2019 35.686 65.0937 36.2331 62.7353 36.2331C60.3772 36.2331 58.2643 35.686 56.3972 34.5918C54.5387 33.4889 53.066 31.9089 51.9788 29.8518C50.9005 27.786 50.3613 25.3088 50.3613 22.4201C50.3613 19.5227 50.9005 17.0454 51.9788 14.9884C53.066 12.9225 54.5387 11.3425 56.3972 10.2484C58.2643 9.15417 60.3772 8.60706 62.7353 8.60706C65.0937 8.60706 67.2019 9.15417 69.0604 10.2484C70.9278 11.3425 72.4005 12.9225 73.4788 14.9884C74.566 17.0454 75.1093 19.5227 75.1093 22.4201ZM70.2046 22.4201C70.2046 20.3805 69.8847 18.6605 69.2444 17.2599C68.6135 15.8506 67.7366 14.7871 66.6146 14.0693C65.4926 13.3427 64.1995 12.9794 62.7353 12.9794C61.2715 12.9794 59.9784 13.3427 58.856 14.0693C57.734 14.7871 56.8531 15.8506 56.2132 17.2599C55.5818 18.6605 55.2663 20.3805 55.2663 22.4201C55.2663 24.4597 55.5818 26.1841 56.2132 27.5934C56.8531 28.994 57.734 30.0575 58.856 30.7841C59.9784 31.5018 61.2715 31.8608 62.7353 31.8608C64.1995 31.8608 65.4926 31.5018 66.6146 30.7841C67.7366 30.0575 68.6135 28.994 69.2444 27.5934C69.8847 26.1841 70.2046 24.4597 70.2046 22.4201Z" fill="black"/>
<path d="M79.5107 35.8654V15.6973H84.1262V19.0587H84.3365C84.705 17.8944 85.3359 16.9972 86.2302 16.367C87.1334 15.7279 88.1632 15.4084 89.3204 15.4084C89.5837 15.4084 89.8773 15.4216 90.2017 15.4479C90.5346 15.4654 90.8108 15.496 91.0301 15.5397V19.9121C90.8282 19.8421 90.5083 19.7808 90.0699 19.7283C89.6403 19.667 89.2241 19.6364 88.8208 19.6364C87.9529 19.6364 87.1726 19.8246 86.4802 20.201C85.7962 20.5686 85.2571 21.0807 84.8627 21.7372C84.4683 22.3938 84.271 23.1509 84.271 24.0088V35.8654H79.5107Z" fill="black"/>
<path d="M102.145 43.8488C100.435 43.8488 98.9669 43.6166 97.7394 43.1529C96.5122 42.6974 95.5261 42.0847 94.7807 41.3145C94.0356 40.5444 93.5183 39.6906 93.2291 38.754L97.5161 37.7169C97.709 38.1107 97.9894 38.5004 98.3574 38.8853C98.7259 39.2795 99.221 39.6034 99.8434 39.857C100.475 40.1195 101.268 40.2511 102.224 40.2511C103.574 40.2511 104.691 39.9228 105.577 39.2661C106.462 38.6183 106.905 37.5505 106.905 36.0624V32.2415H106.668C106.423 32.7317 106.063 33.235 105.59 33.7515C105.125 34.268 104.507 34.7013 103.736 35.0514C102.973 35.4015 102.013 35.5766 100.856 35.5766C99.3043 35.5766 97.8975 35.2133 96.6348 34.4868C95.3813 33.7515 94.3819 32.6573 93.6368 31.2042C92.9003 29.7424 92.5322 27.9129 92.5322 25.7158C92.5322 23.5012 92.9003 21.6323 93.6368 20.1092C94.3819 18.5773 95.3858 17.4175 96.6481 16.6297C97.9105 15.8331 99.3176 15.4348 100.869 15.4348C102.053 15.4348 103.026 15.6361 103.789 16.0388C104.56 16.4327 105.174 16.9098 105.629 17.47C106.085 18.0215 106.431 18.5423 106.668 19.0325H106.931V15.6974H111.626V36.1937C111.626 37.918 111.214 39.3449 110.39 40.4741C109.566 41.6033 108.439 42.4482 107.01 43.0084C105.581 43.5685 103.959 43.8488 102.145 43.8488ZM102.184 31.8476C103.192 31.8476 104.052 31.6025 104.762 31.1123C105.472 30.6221 106.011 29.9175 106.379 28.9984C106.747 28.0792 106.931 26.9763 106.931 25.6895C106.931 24.4203 106.747 23.3086 106.379 22.3544C106.02 21.4003 105.485 20.6606 104.775 20.1354C104.073 19.6015 103.21 19.3345 102.184 19.3345C101.124 19.3345 100.238 19.6102 99.528 20.1617C98.8177 20.7132 98.283 21.4703 97.9238 22.4332C97.5642 23.3874 97.3847 24.4728 97.3847 25.6895C97.3847 26.9238 97.5642 28.0048 97.9238 28.9327C98.2919 29.8518 98.831 30.5696 99.5409 31.0861C100.26 31.5938 101.141 31.8476 102.184 31.8476Z" fill="black"/>
<path d="M122.317 36.2725C121.037 36.2725 119.884 36.0449 118.858 35.5897C117.841 35.1258 117.035 34.443 116.439 33.5414C115.851 32.6398 115.558 31.5281 115.558 30.2063C115.558 29.0684 115.768 28.1274 116.189 27.3833C116.61 26.6393 117.184 26.044 117.912 25.5976C118.639 25.1512 119.459 24.8142 120.37 24.5866C121.291 24.3502 122.242 24.1795 123.224 24.0745C124.407 23.952 125.368 23.8425 126.104 23.7462C126.84 23.6412 127.375 23.4836 127.708 23.2735C128.05 23.0547 128.221 22.7177 128.221 22.2625V22.1837C128.221 21.1946 127.928 20.4287 127.34 19.886C126.753 19.3432 125.907 19.0719 124.802 19.0719C123.636 19.0719 122.711 19.3257 122.028 19.8334C121.352 20.3411 120.897 20.9408 120.66 21.6323L116.215 21.002C116.566 19.7765 117.144 18.7524 117.951 17.9295C118.757 17.098 119.744 16.4765 120.91 16.0651C122.076 15.6449 123.364 15.4348 124.776 15.4348C125.749 15.4348 126.718 15.5486 127.682 15.7762C128.646 16.0038 129.527 16.3802 130.325 16.9054C131.123 17.4218 131.763 18.1265 132.245 19.0194C132.736 19.9122 132.981 21.0283 132.981 22.3676V35.8655H128.405V33.095H128.247C127.958 33.6552 127.551 34.1804 127.024 34.6706C126.507 35.1521 125.854 35.5416 125.065 35.8392C124.285 36.1281 123.369 36.2725 122.317 36.2725ZM123.553 32.7799C124.509 32.7799 125.337 32.5917 126.038 32.2153C126.74 31.8301 127.279 31.3224 127.656 30.6922C128.041 30.0619 128.234 29.3748 128.234 28.6307V26.2541C128.085 26.3767 127.831 26.4905 127.472 26.5955C127.121 26.7006 126.726 26.7925 126.288 26.8712C125.85 26.95 125.416 27.0201 124.986 27.0813C124.557 27.1426 124.184 27.1951 123.869 27.2389C123.158 27.3352 122.523 27.4927 121.962 27.7116C121.401 27.9304 120.958 28.2368 120.634 28.6307C120.309 29.0158 120.147 29.5148 120.147 30.1276C120.147 31.0029 120.467 31.6638 121.107 32.1102C121.747 32.5567 122.562 32.7799 123.553 32.7799Z" fill="black"/>
<path d="M142.529 24.0482V35.8655H137.769V15.6974H142.318V19.1244H142.555C143.02 17.9952 143.76 17.098 144.778 16.4327C145.803 15.7674 147.07 15.4348 148.578 15.4348C149.972 15.4348 151.186 15.7324 152.22 16.3276C153.263 16.9229 154.07 17.7851 154.64 18.9143C155.219 20.0435 155.503 21.4135 155.494 23.0241V35.8655H150.734V23.7594C150.734 22.4113 150.384 21.3565 149.682 20.595C148.99 19.8334 148.03 19.4526 146.802 19.4526C145.97 19.4526 145.229 19.6365 144.58 20.0041C143.94 20.363 143.436 20.8839 143.068 21.5666C142.708 22.2494 142.529 23.0766 142.529 24.0482Z" fill="black"/>
<path d="M160.333 35.8655V15.6974H165.094V35.8655H160.333ZM162.727 12.835C161.973 12.835 161.324 12.5855 160.78 12.0866C160.237 11.5789 159.965 10.9705 159.965 10.2615C159.965 9.5437 160.237 8.93531 160.78 8.43637C161.324 7.92867 161.973 7.6748 162.727 7.6748C163.489 7.6748 164.138 7.92867 164.672 8.43637C165.216 8.93531 165.488 9.5437 165.488 10.2615C165.488 10.9705 165.216 11.5789 164.672 12.0866C164.138 12.5855 163.489 12.835 162.727 12.835Z" fill="black"/>
<path d="M173.881 15.6974L177.958 23.1422L182.1 15.6974H187.136L181.048 25.7814L187.241 35.8654H182.231L177.958 28.6044L173.723 35.8654H168.674L174.828 25.7814L168.832 15.6974H173.881Z" fill="black"/>
<path d="M193.751 36.1544C192.953 36.1544 192.269 35.8743 191.699 35.3141C191.129 34.7538 190.849 34.071 190.858 33.2657C190.849 32.4779 191.129 31.8039 191.699 31.2436C192.269 30.6834 192.953 30.4033 193.751 30.4033C194.522 30.4033 195.193 30.6834 195.763 31.2436C196.341 31.8039 196.635 32.4779 196.644 33.2657C196.635 33.7997 196.495 34.2855 196.223 34.7232C195.96 35.1609 195.609 35.511 195.171 35.7736C194.741 36.0274 194.268 36.1544 193.751 36.1544Z" fill="black"/>
</g>
<defs>
<clipPath id="clip0_78_6">
<rect width="197" height="44" fill="white"/>
</clipPath>
</defs>
</svg>
