<svg width="16" height="17" viewBox="0 0 16 17" fill="none" xmlns="http://www.w3.org/2000/svg">
<path fill-rule="evenodd" clip-rule="evenodd" d="M8.00039 13.1137C9.27343 13.1137 10.4943 12.608 11.3945 11.7079C12.2947 10.8077 12.8004 9.58678 12.8004 8.31375C12.8004 7.04071 12.2947 5.81981 11.3945 4.91963C10.4943 4.01946 9.27343 3.51375 8.00039 3.51375C6.72735 3.51375 5.50645 4.01946 4.60628 4.91963C3.7061 5.81981 3.20039 7.04071 3.20039 8.31375C3.20039 9.58678 3.7061 10.8077 4.60628 11.7079C5.50645 12.608 6.72735 13.1137 8.00039 13.1137ZM8.00039 13.9137C8.73579 13.9137 9.46399 13.7689 10.1434 13.4875C10.8228 13.206 11.4402 12.7936 11.9602 12.2735C12.4802 11.7535 12.8927 11.1362 13.1741 10.4568C13.4555 9.77735 13.6004 9.04915 13.6004 8.31375C13.6004 7.57834 13.4555 6.85014 13.1741 6.17072C12.8927 5.49129 12.4802 4.87396 11.9602 4.35395C11.4402 3.83394 10.8228 3.42145 10.1434 3.14002C9.46399 2.85859 8.73579 2.71375 8.00039 2.71375C6.51518 2.71375 5.0908 3.30374 4.04059 4.35395C2.99039 5.40415 2.40039 6.82853 2.40039 8.31375C2.40039 9.79896 2.99039 11.2233 4.04059 12.2735C5.0908 13.3237 6.51518 13.9137 8.00039 13.9137Z" fill="#889199"/>
<path fill-rule="evenodd" clip-rule="evenodd" d="M8.00059 5.51379C8.10667 5.51379 8.20841 5.55594 8.28343 5.63095C8.35844 5.70597 8.40059 5.80771 8.40059 5.91379V8.31379C8.40059 8.41988 8.35844 8.52162 8.28343 8.59664C8.20841 8.67165 8.10667 8.71379 8.00059 8.71379C7.8945 8.71379 7.79276 8.67165 7.71774 8.59664C7.64273 8.52162 7.60059 8.41988 7.60059 8.31379V5.91379C7.60059 5.80771 7.64273 5.70597 7.71774 5.63095C7.79276 5.55594 7.8945 5.51379 8.00059 5.51379Z" fill="#889199"/>
<path fill-rule="evenodd" clip-rule="evenodd" d="M10.8006 8.3137C10.8006 8.41978 10.7584 8.52152 10.6834 8.59654C10.6084 8.67155 10.5067 8.7137 10.4006 8.7137H8.00059C7.8945 8.7137 7.79276 8.67155 7.71774 8.59654C7.64273 8.52152 7.60059 8.41978 7.60059 8.3137C7.60059 8.20761 7.64273 8.10587 7.71774 8.03085C7.79276 7.95584 7.8945 7.9137 8.00059 7.9137H10.4006C10.5067 7.9137 10.6084 7.95584 10.6834 8.03085C10.7584 8.10587 10.8006 8.20761 10.8006 8.3137Z" fill="#889199"/>
</svg>
