<svg width="16" height="17" viewBox="0 0 16 17" fill="none" xmlns="http://www.w3.org/2000/svg">
<path d="M8.66634 4.31376C8.66634 4.13695 8.5961 3.96738 8.47108 3.84236C8.34605 3.71733 8.17649 3.64709 7.99967 3.64709C7.82286 3.64709 7.65329 3.71733 7.52827 3.84236C7.40325 3.96738 7.33301 4.13695 7.33301 4.31376V7.64709H3.99967C3.82286 7.64709 3.65329 7.71733 3.52827 7.84236C3.40325 7.96738 3.33301 8.13695 3.33301 8.31376C3.33301 8.49057 3.40325 8.66014 3.52827 8.78517C3.65329 8.91019 3.82286 8.98043 3.99967 8.98043H7.33301V12.3138C7.33301 12.4906 7.40325 12.6601 7.52827 12.7852C7.65329 12.9102 7.82286 12.9804 7.99967 12.9804C8.17649 12.9804 8.34605 12.9102 8.47108 12.7852C8.5961 12.6601 8.66634 12.4906 8.66634 12.3138V8.98043H11.9997C12.1765 8.98043 12.3461 8.91019 12.4711 8.78517C12.5961 8.66014 12.6663 8.49057 12.6663 8.31376C12.6663 8.13695 12.5961 7.96738 12.4711 7.84236C12.3461 7.71733 12.1765 7.64709 11.9997 7.64709H8.66634V4.31376Z" fill="#AEAAAA"/>
</svg>
