<svg width="20" height="21" viewBox="0 0 20 21" fill="none" xmlns="http://www.w3.org/2000/svg">
<path d="M10.8337 5.31368C10.8337 5.09267 10.7459 4.8807 10.5896 4.72442C10.4333 4.56814 10.2213 4.48035 10.0003 4.48035C9.77931 4.48035 9.56735 4.56814 9.41107 4.72442C9.25479 4.8807 9.16699 5.09267 9.16699 5.31368V9.48035H5.00033C4.77931 9.48035 4.56735 9.56814 4.41107 9.72442C4.25479 9.88071 4.16699 10.0927 4.16699 10.3137C4.16699 10.5347 4.25479 10.7467 4.41107 10.9029C4.56735 11.0592 4.77931 11.147 5.00033 11.147H9.16699V15.3137C9.16699 15.5347 9.25479 15.7467 9.41107 15.9029C9.56735 16.0592 9.77931 16.147 10.0003 16.147C10.2213 16.147 10.4333 16.0592 10.5896 15.9029C10.7459 15.7467 10.8337 15.5347 10.8337 15.3137V11.147H15.0003C15.2213 11.147 15.4333 11.0592 15.5896 10.9029C15.7459 10.7467 15.8337 10.5347 15.8337 10.3137C15.8337 10.0927 15.7459 9.88071 15.5896 9.72442C15.4333 9.56814 15.2213 9.48035 15.0003 9.48035H10.8337V5.31368Z" fill="#5353CB"/>
</svg>
