<svg width="16" height="17" viewBox="0 0 16 17" fill="none" xmlns="http://www.w3.org/2000/svg">
<path fill-rule="evenodd" clip-rule="evenodd" d="M3.33301 1.14709C3.46562 1.14709 3.59279 1.19977 3.68656 1.29354C3.78033 1.38731 3.83301 1.51449 3.83301 1.64709V2.37043L4.88234 2.16043C6.07788 1.92161 7.31707 2.03557 8.44901 2.48843L8.58434 2.54243C9.5275 2.91961 10.5655 2.99006 11.551 2.74376C11.7427 2.69584 11.9428 2.69223 12.136 2.73322C12.3293 2.77421 12.5107 2.85871 12.6664 2.98031C12.8221 3.1019 12.9481 3.2574 13.0347 3.43497C13.1214 3.61254 13.1664 3.80752 13.1663 4.00509V8.91643C13.1663 9.57509 12.7177 10.1498 12.0783 10.3098L11.9357 10.3451C10.6539 10.6654 9.30374 10.5737 8.07701 10.0831C7.12528 9.70257 6.08345 9.60691 5.07834 9.80776L3.83301 10.0571V14.9804C3.83301 15.113 3.78033 15.2402 3.68656 15.334C3.59279 15.4277 3.46562 15.4804 3.33301 15.4804C3.2004 15.4804 3.07322 15.4277 2.97945 15.334C2.88569 15.2402 2.83301 15.113 2.83301 14.9804V1.64709C2.83301 1.51449 2.88569 1.38731 2.97945 1.29354C3.07322 1.19977 3.2004 1.14709 3.33301 1.14709ZM3.83301 9.03709L4.88234 8.82709C6.07788 8.58828 7.31707 8.70224 8.44901 9.15509C9.48038 9.56739 10.6154 9.64436 11.693 9.37509L11.8363 9.33909C11.9306 9.31548 12.0142 9.26106 12.074 9.18449C12.1338 9.10792 12.1663 9.01357 12.1663 8.91643V4.00509C12.1664 3.95949 12.156 3.91448 12.1361 3.87348C12.1161 3.83247 12.087 3.79657 12.0511 3.76848C12.0152 3.74039 11.9733 3.72086 11.9287 3.71138C11.8841 3.7019 11.8379 3.70271 11.7937 3.71376C10.6043 4.01116 9.3514 3.92626 8.21301 3.47109L8.07701 3.41643C7.12528 3.0359 6.08345 2.94024 5.07834 3.14109L3.83301 3.39043V9.03709Z" fill="#FF972F"/>
</svg>
