<svg width="20" height="20" viewBox="0 0 20 20" fill="none" xmlns="http://www.w3.org/2000/svg">
<path d="M13.3337 3.54163C13.3337 4.57496 12.492 5.41663 11.4587 5.41663H8.54199C8.02533 5.41663 7.55866 5.20829 7.21699 4.86663C6.87533 4.52496 6.66699 4.05829 6.66699 3.54163C6.66699 2.50829 7.50866 1.66663 8.54199 1.66663H11.4587C11.9753 1.66663 12.442 1.87496 12.7837 2.21663C13.1253 2.55829 13.3337 3.02496 13.3337 3.54163Z" fill="#5353CB"/>
<path d="M15.6913 4.19164C15.4997 4.0333 15.283 3.9083 15.0497 3.81664C14.808 3.72497 14.5663 3.91664 14.5163 4.16664C14.233 5.59164 12.9747 6.66664 11.458 6.66664H8.54134C7.70801 6.66664 6.92467 6.34164 6.33301 5.74997C5.89967 5.31664 5.59967 4.76664 5.48301 4.17497C5.43301 3.92497 5.18301 3.72497 4.94134 3.82497C3.97467 4.21664 3.33301 5.09997 3.33301 6.87497V15C3.33301 17.5 4.82467 18.3333 6.66634 18.3333H13.333C15.1747 18.3333 16.6663 17.5 16.6663 15V6.87497C16.6663 5.51664 16.2913 4.6833 15.6913 4.19164ZM6.66634 10.2083H9.99967C10.3413 10.2083 10.6247 10.4916 10.6247 10.8333C10.6247 11.175 10.3413 11.4583 9.99967 11.4583H6.66634C6.32467 11.4583 6.04134 11.175 6.04134 10.8333C6.04134 10.4916 6.32467 10.2083 6.66634 10.2083ZM13.333 14.7916H6.66634C6.32467 14.7916 6.04134 14.5083 6.04134 14.1666C6.04134 13.825 6.32467 13.5416 6.66634 13.5416H13.333C13.6747 13.5416 13.958 13.825 13.958 14.1666C13.958 14.5083 13.6747 14.7916 13.333 14.7916Z" fill="#5353CB"/>
</svg>
