<svg width="20" height="21" viewBox="0 0 20 21" fill="none" xmlns="http://www.w3.org/2000/svg">
<path d="M10.1331 9.37201C10.0498 9.36368 9.9498 9.36368 9.85814 9.37201C7.8748 9.30535 6.2998 7.68035 6.2998 5.68035C6.2998 3.63868 7.9498 1.98035 9.9998 1.98035C12.0415 1.98035 13.6998 3.63868 13.6998 5.68035C13.6915 7.68035 12.1165 9.30535 10.1331 9.37201Z" stroke="#7D7D7D" stroke-width="1.3" stroke-linecap="round" stroke-linejoin="round"/>
<path d="M5.9666 12.4471C3.94993 13.7971 3.94993 15.9971 5.9666 17.3388C8.25827 18.8721 12.0166 18.8721 14.3083 17.3388C16.3249 15.9888 16.3249 13.7888 14.3083 12.4471C12.0249 10.9221 8.2666 10.9221 5.9666 12.4471Z" stroke="#7D7D7D" stroke-width="1.3" stroke-linecap="round" stroke-linejoin="round"/>
</svg>
