<svg width="20" height="21" viewBox="0 0 20 21" fill="none" xmlns="http://www.w3.org/2000/svg">
<path d="M10.833 7.81372H5.83301" stroke="#AEAAAA" stroke-width="1.5" stroke-linecap="round" stroke-linejoin="round"/>
<path d="M18.3338 9.45531V11.172C18.3338 11.6304 17.9672 12.0053 17.5005 12.022H15.8672C14.9672 12.022 14.1422 11.3637 14.0672 10.4637C14.0172 9.93866 14.2172 9.44699 14.5672 9.10533C14.8755 8.78866 15.3005 8.60535 15.7672 8.60535H17.5005C17.9672 8.62201 18.3338 8.99698 18.3338 9.45531Z" stroke="#AEAAAA" stroke-width="1.5" stroke-linecap="round" stroke-linejoin="round"/>
<path d="M14.567 9.10534C14.217 9.447 14.017 9.93867 14.067 10.4637C14.142 11.3637 14.967 12.022 15.867 12.022H17.5003V13.2303C17.5003 15.7303 15.8337 17.397 13.3337 17.397H5.83366C3.33366 17.397 1.66699 15.7303 1.66699 13.2303V7.39701C1.66699 5.13035 3.03366 3.54701 5.15866 3.28034C5.37533 3.24701 5.60033 3.23035 5.83366 3.23035H13.3337C13.5503 3.23035 13.7587 3.23867 13.9587 3.272C16.1087 3.522 17.5003 5.11368 17.5003 7.39701V8.60536H15.767C15.3003 8.60536 14.8753 8.78867 14.567 9.10534Z" stroke="#AEAAAA" stroke-width="1.5" stroke-linecap="round" stroke-linejoin="round"/>
</svg>
